<svg width="32" height="40" viewBox="0 0 32 40" fill="none" xmlns="http://www.w3.org/2000/svg">
<path d="M29.2907 17.5884L17.5058 0.698442C17.3348 0.482453 17.1089 0.306374 16.847 0.184881C16.5851 0.063388 16.2947 0 16 0C15.7053 0 15.4149 0.063388 15.153 0.184881C14.8911 0.306374 14.6652 0.482453 14.4942 0.698442L2.656 17.6684C1.01135 20.056 0.0952281 22.7918 0 25.5997C0 29.4189 1.68571 33.0817 4.68629 35.7823C7.68687 38.4828 11.7565 40 16 40C20.2435 40 24.3131 38.4828 27.3137 35.7823C30.3143 33.0817 32 29.4189 32 25.5997C31.8978 22.7609 30.9631 19.997 29.2907 17.5884ZM16 36.7999C12.7008 36.7961 9.53799 35.6149 7.20513 33.5153C4.87226 31.4156 3.55979 28.569 3.55556 25.5997C3.65005 23.3622 4.39681 21.1865 5.72089 19.2908L7.38311 16.9068L25.2924 33.0255C24.1293 34.2115 22.6993 35.1616 21.0972 35.8126C19.4952 36.4636 17.7577 36.8007 16 36.8015V36.7999Z" fill="#5BF0E7"/>
</svg>
