<svg width="41" height="36" viewBox="0 0 41 36" fill="none" xmlns="http://www.w3.org/2000/svg">
<path d="M25.3751 8.65V13.75M25.3751 8.65V1M25.3751 8.65L19.6877 3.69167M25.3751 8.65L31.0626 3.69167M25.3751 13.75V18.85M25.3751 13.75H31.2251M25.3751 13.75H21.4752M25.3751 18.85V26.5M25.3751 18.85L31.0626 23.8083M25.3751 18.85L22.5314 21.3292M31.2251 13.75H40M31.2251 13.75L36.9125 8.79167M31.2251 13.75L36.9125 18.7083M4.89997 20.9882V5.25C4.89997 2.90279 7.08256 1 9.77493 1C12.4673 1 14.6499 2.90279 14.6499 5.25V20.9882C17.0015 22.3606 18.5499 24.6976 18.5499 27.35C18.5499 31.575 14.6212 35 9.77493 35C4.92867 35 1 31.575 1 27.35C1 24.6976 2.54832 22.3606 4.89997 20.9882Z" stroke="#5BF0E7" stroke-width="2" stroke-linecap="round" stroke-linejoin="round"/>
</svg>
